<svg width="332.3558227539063" height="69.65188487487713" viewBox="0 0 410.3636363636364 86" class="looka-1j8o68f"><defs id="SvgjsDefs1164"></defs><g id="SvgjsG1165" featurekey="symbolContainer" transform="matrix(1,0,0,1,0,0)" fill="#232931"><rect xmlns="http://www.w3.org/2000/svg" width="104" height="86" rx="10" ry="10"></rect></g><g id="SvgjsG1166" featurekey="uHI19F-0" transform="matrix(0.7070707082748413,0,0,0.7070707082748413,16.464646464646464,7.62566383438881)" fill="#4ecca3"><g xmlns="http://www.w3.org/2000/svg"><path d="M32.333,65.361c8.958,1.709,15.884,6.871,15.884,6.871V24.876c0,0-6.965-5.167-15.939-6.884   c-9.089-1.738-20.957,1.695-20.957,1.695v47.36C11.32,67.047,23.226,63.617,32.333,65.361z"></path><path d="M87.912,67.219V19.863c0,0-9.15-2.892-17.676-2.029v32.216l-6.393-6.502l-6.396,6.502V21.774   c-3.475,1.7-5.664,3.271-5.664,3.271V72.4c0,0,7.148-5.156,16.105-6.869C76.996,63.792,87.912,67.219,87.912,67.219z"></path><path d="M91.412,23.99v48.136c0,0-13.762-3.849-23.992-1.893c-9.158,1.748-15.896,6.694-17.032,7.567v0.145   c0,0-0.033-0.023-0.097-0.072c-0.06,0.049-0.094,0.072-0.094,0.072v-0.145c-1.136-0.873-7.874-5.815-17.032-7.567   c-10.225-1.96-25.336,1.893-25.336,1.893V23.847C6.947,23.979,6.008,24.118,5,24.27v51.857c0,0,16.468-4.217,27.666-2.076   c11.02,2.107,17.671,8.449,17.671,8.449s6.654-6.342,17.671-8.449C79.211,71.907,95,76.127,95,76.127V24.496   C95,24.496,93.625,24.263,91.412,23.99z"></path></g></g><g id="SvgjsG1167" featurekey="8FbbNb-0" transform="matrix(3.851043939590454,0,0,3.851043939590454,118.223433956163,-4.793095303333349)" fill="#232931"><path d="M3.3 4.880000000000001 l0 15.12 l-1.8 0 l0 -15.12 l1.8 0 z M10.5 10.28 c1.4533 0 2.5834 0.45664 3.39 1.37 s1.2167 2.17 1.23 3.77 l0 0.5 l-7.6 0 c0 0.77334 0.31 1.4233 0.93 1.95 s1.3767 0.79666 2.27 0.81 c0.98666 0 1.8533 -0.47334 2.6 -1.42 l1.36 1.04 c-1.0133 1.2933 -2.4134 1.94 -4.2 1.94 c-1.4533 0 -2.6234 -0.46334 -3.51 -1.39 s-1.3433 -2.1234 -1.37 -3.59 c0 -1.4133 0.45666 -2.59 1.37 -3.53 s2.09 -1.4233 3.53 -1.45 z M13.2 14.48 c-0.02666 -0.89334 -0.28 -1.5767 -0.76 -2.05 s-1.14 -0.71 -1.98 -0.71 c-0.56 0 -1.0633 0.13666 -1.51 0.41 s-0.79666 0.62668 -1.05 1.06 s-0.38 0.86334 -0.38 1.29 l5.68 0 z M21.78 10.3 c1.5067 0 2.72 0.5 3.64 1.5 l-1.36 1.24 c-0.65334 -0.70666 -1.44 -1.06 -2.36 -1.06 c-0.88 0 -1.5933 0.31334 -2.14 0.94 s-0.82 1.4333 -0.82 2.42 c0 0.93334 0.28666 1.7 0.86 2.3 s1.3067 0.90666 2.2 0.92 c0.94666 0 1.7133 -0.35334 2.3 -1.06 l1.28 1.28 c-0.85334 0.97334 -2.0534 1.46 -3.6 1.46 c-1.4533 0 -2.6366 -0.45334 -3.55 -1.36 s-1.3833 -2.1 -1.41 -3.58 c0.01334 -1.5067 0.48334 -2.7134 1.41 -3.62 s2.11 -1.3667 3.55 -1.38 z M29.42 7.859999999999999 l-0.000019531 2.66 l2.58 0 l0 1.56 l-2.58 0 l0 4.56 c0 0.61334 0.08666 1.0867 0.26 1.42 s0.54 0.5 1.1 0.5 c0.53334 0 0.96 -0.09334 1.28 -0.28 l0 1.64 c-0.34666 0.18666 -0.89332 0.29332 -1.64 0.31998 c-0.72 0 -1.2767 -0.11 -1.67 -0.33 s-0.68 -0.52666 -0.86 -0.92 s-0.27 -1.01 -0.27 -1.85 l0 -5.06 l-2.08 0 l0 -1.56 l2.08 0 l0 -2.66 l1.8 0 z M36.120000000000005 10.52 l0 5.68 c0 0.74666 0.19666 1.3267 0.59 1.74 s0.91668 0.62 1.57 0.62 c0.84 0 1.49 -0.27666 1.95 -0.83 s0.69 -1.3033 0.69 -2.25 l0 -4.96 l1.8 0 l0 9.48 l-1.8 0 l0 -1.46 l-0.04 0 c-0.25334 0.53334 -0.66668 0.95 -1.24 1.25 s-1.2 0.45 -1.88 0.45 c-1.0533 0 -1.89 -0.32666 -2.51 -0.98 s-0.93 -1.5067 -0.93 -2.56 l0 -6.18 l1.8 0 z M50.12 10.28 c0.33334 0 0.6 0.04 0.8 0.12 l-0.08 1.94 c-0.34666 -0.09334 -0.64666 -0.14 -0.9 -0.14 c-1.7733 0 -2.6734 0.98666 -2.7 2.96 l0 4.84 l-1.8 0 l0 -9.48 l1.8 0 l0 1.46 l0.04 0 c0.24 -0.50666 0.62666 -0.91666 1.16 -1.23 s1.0933 -0.47 1.68 -0.47 z M53.879999999999995 5.800000000000001 c0.36 0 0.67002 0.13002 0.93002 0.39002 s0.39 0.57 0.39 0.93 c0 0.37334 -0.13334 0.68668 -0.4 0.94002 s-0.57332 0.38 -0.91998 0.38 c-0.37334 0 -0.68668 -0.12666 -0.94002 -0.38 s-0.38 -0.56668 -0.38 -0.94002 s0.13334 -0.68668 0.4 -0.94002 s0.57332 -0.38 0.91998 -0.38 z M54.779999999999994 10.52 l0 9.48 l-1.8 0 l0 -9.48 l1.8 0 z M64.55999999999999 10.52 l0 1.6 l-5.42 6.32 l5.7 0 l0 1.56 l-7.86 0 l0 -1.62 l5.38 -6.3 l-5.2 0 l0 -1.56 l7.4 0 z M71.24 10.28 c1.4533 0 2.5834 0.45664 3.39 1.37 s1.2167 2.17 1.23 3.77 l0 0.5 l-7.6 0 c0 0.77334 0.31 1.4233 0.93 1.95 s1.3767 0.79666 2.27 0.81 c0.98666 0 1.8533 -0.47334 2.6 -1.42 l1.36 1.04 c-1.0133 1.2933 -2.4134 1.94 -4.2 1.94 c-1.4533 0 -2.6234 -0.46334 -3.51 -1.39 s-1.3433 -2.1234 -1.37 -3.59 c0 -1.4133 0.45666 -2.59 1.37 -3.53 s2.09 -1.4233 3.53 -1.45 z M73.94 14.48 c-0.02666 -0.89334 -0.28 -1.5767 -0.76 -2.05 s-1.14 -0.71 -1.98 -0.71 c-0.56 0 -1.0633 0.13666 -1.51 0.41 s-0.79666 0.62668 -1.05 1.06 s-0.38 0.86334 -0.38 1.29 l5.68 0 z"></path></g></svg>