<?xml version="1.0" encoding="iso-8859-1"?>
<!-- Uploaded to: SVG Repo, www.svgrepo.com, Generator: SVG Repo Mixer Tools -->
<!DOCTYPE svg PUBLIC "-//W3C//DTD SVG 1.1//EN" "http://www.w3.org/Graphics/SVG/1.1/DTD/svg11.dtd">
<svg fill="#ffffff" height="800px" width="800px" version="1.1" id="Capa_1" xmlns="http://www.w3.org/2000/svg" xmlns:xlink="http://www.w3.org/1999/xlink" 
	 viewBox="0 0 353.078 353.078" xml:space="preserve">
<g>
	<path d="M176.53,215.154c28.601,0,51.799-23.174,51.799-51.779V51.785C228.329,23.178,205.131,0,176.53,0
		s-51.786,23.178-51.786,51.785v111.59C124.744,191.98,147.93,215.154,176.53,215.154z"/>
	<path d="M272.24,109.545c0-9.297-7.57-16.883-16.894-16.883c-9.323,0-16.886,7.586-16.886,16.883c0,3.449,1.041,6.664,2.815,9.352
		v47.951c0,35.723-29.038,64.742-64.745,64.742c-35.69,0-64.731-29.02-64.731-64.742v-47.951c1.768-2.688,2.815-5.902,2.815-9.352
		c0-9.297-7.563-16.883-16.885-16.883c-9.338,0-16.892,7.586-16.892,16.883c0,3.449,1.037,6.664,2.814,9.352v47.951
		c0,46.453,34.25,85.047,78.804,91.846v66.238h-31.521v28.146h91.202v-28.146h-31.531v-66.238
		c44.568-6.799,78.818-45.393,78.818-91.846v-47.951C271.202,116.209,272.24,112.994,272.24,109.545z"/>
</g>
</svg>